<?xml version="1.0" standalone="no"?>
<!DOCTYPE svg PUBLIC "-//W3C//DTD SVG 1.1//EN" "http://www.w3.org/Graphics/SVG/1.1/DTD/svg11.dtd" >
<svg xmlns="http://www.w3.org/2000/svg" xmlns:xlink="http://www.w3.org/1999/xlink" version="1.1">
<metadata>
Created by FontForge 20150824 at Sat Jun 18 07:39:32 2016
 By Everything Fonts
Osgood Sans (c) Quzma Supply Co. 2016. All Rights Reserved
</metadata>
<defs>
<font id="OsgoodSans" horiz-adv-x="472" >
  <font-face 
    font-family="Osgood Sans"
    font-weight="400"
    font-stretch="normal"
    units-per-em="1000"
    panose-1="0 0 0 0 0 0 0 0 0 0"
    ascent="800"
    descent="-200"
    x-height="514"
    cap-height="698"
    bbox="-105 -249 906 846"
    underline-thickness="50"
    underline-position="-225"
    unicode-range="U+0021-007E"
  />
<missing-glyph horiz-adv-x="299" 
 />
    <glyph glyph-name=".notdef" horiz-adv-x="299" 
 />
    <glyph glyph-name="exclam" unicode="!" horiz-adv-x="178" 
d="M71 293l-1 372q0 20 21 20q20 0 20 -20l1 -186v-187q0 -1 -1 -6v-5l-1 -6l-1 -9l-1 -9q-1 -6 2 -14l2 -5l1 -6q0 -4 -5 -9l-4 -3l-4 -3l1 -5q-34 0 -34 40q0 4 2 12l-1 -2l2 16zM88 -3q-55 0 -55 56q0 57 55 57q24 0 40 -16q15 -16 15 -41q0 -24 -16 -40t-39 -16z" />
    <glyph glyph-name="exclam" horiz-adv-x="178" 
d="M71 293l-1 372q0 20 21 20q20 0 20 -20l1 -186v-187q0 -1 -1 -6v-5l-1 -6l-1 -9l-1 -9q-1 -6 2 -14l2 -5l1 -6q0 -4 -5 -9l-4 -3l-4 -3l1 -5q-34 0 -34 40q0 4 2 12l-1 -2l2 16zM88 -3q-55 0 -55 56q0 57 55 57q24 0 40 -16q15 -16 15 -41q0 -24 -16 -40t-39 -16z" />
    <glyph glyph-name="quotedbl" unicode="&#x22;" horiz-adv-x="218" 
d="M28 798q64 0 64 -79q0 -32 -32 -79l-2 -5l-1 -3l-1 -3l-1 -5l-1 -6q-4 -13 -17 -13q-24 0 -24 22q0 18 15 42l7 9l5 9q8 11 9 20q-23 -6 -40 8q-16 13 -16 39q0 16 10 29q11 15 25 15zM157 794l2 -1q1 1 5 1h4q18 0 26 -14l-1 -1q9 -11 14 -25l8 6l1 -17l1 -17
q0 -34 -17 -60l-6 -10l-7 -9l-5 -10l-2 -4l-1 -3q2 -12 -2 -17q-5 -8 -15 -8q-25 0 -25 27q0 8 3 14l-1 -4q2 8 15 29l11 16l2 5l2 4q2 6 3 8q-52 0 -52 47q0 15 10 28q11 15 24 15h3z" />
    <glyph glyph-name="numbersign" unicode="#" horiz-adv-x="486" 
d="M136 437l-12 1h-22l-12 -1q-24 -2 -27 -1q-32 2 -32 23q0 20 21 20h66l6 -1l6 -1q9 0 10 -1l12 90l13 101q3 33 35 33q8 0 12 -7q5 -8 5 -14q0 -5 -3 -11q-4 -7 -8 -7v1l-26 -189q24 0 49 4l24 2l24 1l13 -1l13 -2q23 -2 25 -1h-1l29 204q2 9 9 13t16 4q8 0 12 -6
q5 -9 4 -13l-29 -207h53l10 2q14 2 21 0q22 -1 22 -23q0 -16 -15 -19q-2 -1 -13 -1l-7 1h-22l-16 1q-19 0 -31 -3l-3 1q-8 -72 -21 -155q3 -1 23 -1h32q19 1 32 0q20 0 20 -20q0 -21 -22 -21h-77l-17 1l-2 -9l-2 -10l-14 -93l-14 -93q-3 -18 -24 -18q-9 0 -14 8q-4 7 -4 17
q0 13 4 26l3 14l2 13q8 69 21 149h-143l-2 -20l-2 -13l-1 -14l-5 -50q-4 -54 -14 -97v1l-1 -14q-1 -9 -3 -14q-4 -13 -21 -13q-19 0 -19 23q0 12 3 31l2 16l3 15l1 6l1 7l2 17l2 17l3 18l3 23l3 21q3 25 5 39q-5 -1 -25 -1h-33l-10 -1q-19 -2 -21 -1q-25 1 -25 22
q0 20 20 20q3 0 30 1h30q19 1 39 1l11 80zM209 279l14 1h79q7 47 12 86l2 19l2 17l1 10l1 9q2 10 2 13l-11 2l-11 1h-22q-17 0 -52 -3l-27 -3l-26 -1l-2 -32q-3 -21 -6 -44l-5 -37l-5 -38v-2z" />
    <glyph glyph-name="dollar" unicode="$" horiz-adv-x="549" 
d="M294 32q71 5 117 39q53 39 53 107q0 82 -60 119v-1q-42 27 -110 32v-296zM251 673q-74 0 -120 -40q-48 -42 -48 -115q0 -58 46 -88q5 -4 28 -17q4 -3 13 -8l9 -4l9 -5q33 -19 63 -22v299zM226 -9l-26 2l-14 1h-7l-8 1l-12 1l-11 1h-10l-8 -1h-9q-10 -1 -24 0h-9l-12 1
q-60 3 -60 24t25 21h96q25 0 53 -4l26 -4l26 -1h8v299q-33 5 -75 26q-34 16 -70 38q-67 43 -67 122q0 90 61 145q59 53 150 53l2 18l1 19l1 14v10q1 10 1 13v8l-1 10q-1 11 0 18q3 20 23 20t20 -21l-1 -27l-2 -27q0 -10 -1 -21v-16q-1 -15 -1 -18v-3q96 0 194 -8
q25 -1 25 -23q0 -9 -15 -14q-10 -2 -13 -2l-5 -1h-5l-28 1l-27 3q-36 3 -55 3h-68v-301q92 -8 148 -47q68 -48 68 -133q0 -88 -64 -145q-62 -53 -151 -56v-115q0 -21 -22 -21q-21 0 -21 21v113z" />
    <glyph glyph-name="percent" unicode="%" horiz-adv-x="668" 
d="M514 269q-47 0 -73 -38v1q-9 -12 -12 -32q-3 -15 -3 -36q0 -39 27 -66q29 -26 66 -26q34 0 60 35q22 31 22 67q0 42 -22 67q-24 28 -65 28zM595 281q35 -29 44 -77l-1 -4q3 -15 3 -30q0 -52 -33 -96q-36 -45 -88 -45q-78 0 -116 62l1 -1q-20 29 -20 74q0 112 110 145
l16 1q49 0 84 -29zM251 264l8 14l8 13q15 26 27 45l4 7l3 5l4 6l170 293l2 5l3 5q2 8 2 10v12q0 8 1 10q3 8 20 8q13 0 17 -10q4 -7 4 -21q0 -19 -12 -42l-85 -146l-86 -146l-85 -143l-85 -144v1l-3 -6l-3 -8q-2 -6 -4 -10t-3 -5q-10 -18 -23 -18q-7 0 -15 6q-7 6 -7 14
q0 11 89 163q4 7 14 24l5 7l4 8q6 10 11 18l7 12zM183 596h1q-10 7 -19 8q-4 1 -21 1h-30q-1 0 -7 -3l-5 -2l-3 -2q-47 -26 -47 -88q0 -42 22 -67q24 -29 64 -29q86 0 86 99q0 54 -41 83zM151 647q49 0 84 -41q32 -41 32 -90q0 -27 -4 -40v1q-12 -80 -73 -96v1
q-26 -10 -52 -10q-56 0 -92 41t-36 96q0 94 71 130l2 1l3 1l6 2l4 2l3 1l4 1h48z" />
    <glyph glyph-name="ampersand" unicode="&#x26;" horiz-adv-x="590" 
d="M64 315q15 18 44 40l24 17l24 16l-17 18l-17 19q-18 18 -31 38q-30 47 -30 93q0 65 47 106q45 39 112 39q57 0 101 -38q43 -39 43 -97q0 -59 -49 -108q-17 -18 -47 -40l-25 -19l-25 -17q106 -127 209 -230q56 95 56 180l1 9q0 1 2 9q4 10 14 10q9 0 15 -8q6 -7 6 -17
q0 -47 -9 -82v1q-16 -72 -59 -135l7 -7l7 -5l10 -10l8 -6l8 -6q7 -5 11 -8q32 -21 62 -21q20 0 20 -23q0 -8 -7 -12q-4 -4 -14 -4q-40 0 -75 23q-9 5 -30 23l-16 12l-16 13q-84 -87 -188 -87q-42 0 -64 7h1q-70 15 -117 62q-48 51 -48 122q0 70 53 123h-1zM186 52
q27 -6 55 -6q33 0 63 10v-1q49 16 96 65q-72 70 -215 238l-22 -15l-22 -17q-25 -19 -42 -36q-43 -43 -43 -96q0 -115 130 -143v1zM184 422l8 -9q9 12 41 34l22 15l21 16q47 38 47 89q0 44 -31 69q-30 24 -73 24t-77 -25q-38 -27 -38 -68q0 -50 27 -86q4 -6 11 -13
q7 -9 17 -19l16 -17z" />
    <glyph glyph-name="quotesingle" unicode="'" horiz-adv-x="78" 
d="M40 585q-20 0 -20 21l-3 171q0 20 20 20q21 0 21 -20l3 -171q0 -21 -21 -21z" />
    <glyph glyph-name="parenleft" unicode="(" horiz-adv-x="211" 
d="M109 672v-1q3 5 9 12l4 5l5 6q3 4 7 14l4 9l4 9q9 20 22 20q21 0 21 -21q0 -14 -12 -34l1 1q-1 -2 -6 -11l-3 -6l-4 -6l-1 -1l-2 -2l-4 -6l-4 -6l-5 -6l1 1q-74 -134 -74 -301q0 -192 114 -360q5 -8 5 -13q0 -8 -6 -14q-6 -7 -14 -7q-10 0 -16 8q-61 68 -95 183
q-29 104 -29 206q0 182 78 321z" />
    <glyph glyph-name="parenright" unicode=")" horiz-adv-x="224" 
d="M97 25v1l-9 -12l-5 -6l-5 -6q-4 -4 -9 -17l-4 -8l-3 -8q-9 -19 -23 -19q-19 0 -19 21q0 16 16 41l7 10l7 11l6 8l6 8l-1 -1q74 134 74 301q0 205 -117 364q-5 8 -5 12q0 21 22 21q8 0 16 -8q55 -59 90 -167q34 -99 34 -188q0 -220 -78 -358z" />
    <glyph glyph-name="asterisk" unicode="*" horiz-adv-x="354" 
d="M48 712h-1q18 -6 50 -27q30 -19 46 -33v128q0 20 21 20q20 0 20 -20v-129l59 33l58 32h1l4 1l4 1q19 0 19 -21q0 -13 -11 -19l-109 -62l113 -56q16 -7 16 -19q0 -21 -21 -21q-12 0 -64 28l-21 11l-10 5l-9 5q-5 3 -17 9l-6 3l-4 2v-125q0 -21 -20 -21q-21 0 -21 21v124
l-3 -2l-3 -1l-3 -2l-6 -4l-7 -4l-18 -12l-8 -4l-8 -5q-46 -28 -56 -28q-21 0 -21 21q0 11 12 18h-1q7 3 25 15l25 16q26 17 49 28l-2 1h1l-27 16h1q-2 1 -5 3l-3 2l-3 2l-7 4l-8 5l-13 8l-13 8v-1l-20 13h1q-13 4 -13 17q0 22 21 22q2 0 8 -3l5 -2q1 -1 3 -1z" />
    <glyph glyph-name="plus" unicode="+" horiz-adv-x="488" 
d="M206 524q0 20 20 20t20 -20v-216h222q20 0 20 -20q0 -21 -21 -21h-221v-215q0 -21 -20 -21t-20 21v215h-212q-21 0 -21 21q0 20 21 20h212v216z" />
    <glyph glyph-name="comma" unicode="," horiz-adv-x="138" 
d="M127 22q0 -50 -46 -102v1q-5 -8 -16 -8q-12 0 -20 14v4l-1 3q0 9 17 32l7 10l6 9l6 10l3 6q-69 -16 -69 54q0 55 55 55q43 0 56 -49l-4 -2q6 -18 6 -37z" />
    <glyph glyph-name="hyphen" unicode="-" horiz-adv-x="270" 
d="M256 289q0 -21 -20 -21h-237q-21 0 -21 21q0 20 21 20l237 1q20 0 20 -21z" />
    <glyph glyph-name="period" unicode="." horiz-adv-x="153" 
d="M67 0q-54 0 -54 56q0 57 54 57q24 0 40 -16q15 -16 15 -41q0 -24 -16 -40t-39 -16z" />
    <glyph glyph-name="slash" unicode="/" horiz-adv-x="313" 
d="M30 101q1 5 3 7v-1q6 18 18 45l10 23l10 22v-1q10 26 16 41q8 19 15 35l42 98l42 99q48 110 84 197l6 16l5 15l-1 -1q8 30 33 36q16 -3 16 -21q0 -15 -55 -143q-19 -45 -42 -99q-14 -29 -17 -38l-3 -8l-3 -6l-3 -7l-1 -2l-1 -2v1q-16 -50 -41 -105l-12 -27l-6 -15l-7 -15
l-11 -23l-6 -13l-5 -11v1q-19 -61 -68 -164l1 2l-2 -6l-2 -5q-3 -7 -6 -12q-8 -14 -19 -14q-7 0 -14 7t-7 14q0 5 15 42q5 12 12 27l2 6z" />
    <glyph glyph-name="zero" unicode="0" 
d="M409 200q12 42 17 71v-1q8 56 8 95q0 38 -8 94v-1q-14 86 -47 133q-45 64 -120 64h-12q-10 0 -12 -1l-3 -1l-4 -2l-14 -7l-7 -4l-6 -4l-4 -3l-4 -3q-61 -43 -91 -132q-26 -76 -26 -162q0 -106 39 -189q50 -105 145 -105q70 0 118 83q19 34 31 75zM270 697q84 0 139 -78
q46 -64 58 -156v1q7 -41 7 -101q0 -56 -9 -112q-11 -68 -33 -119q-57 -132 -172 -132q-111 0 -173 117q-50 95 -50 217q0 123 40 213q49 114 148 148q8 2 13 2h32z" />
    <glyph glyph-name="one" unicode="1" 
d="M143 604q1 0 8 5q9 5 22 14l11 7l13 8l27 17q71 44 77 44h13l7 -1l5 -1q12 -4 14 -18q4 -21 4 -67l-1 -34v-33q0 -113 -3 -263l-3 -132l-3 -131q0 -18 -22 -18q-18 0 -18 18q0 102 6 307l3 153q2 152 2 153v20l-27 -15l-27 -16l2 1l-29 -17h1l-67 -41l1 1l-20 -13
l-21 -12h-4l-5 -1q-19 0 -19 20q0 11 22 27q19 13 32 18h-1z" />
    <glyph glyph-name="two" unicode="2" 
d="M39 26q1 16 19 34l7 7l8 7l5 4l4 4l3 3l2 2q17 18 44 44l23 23l25 24q69 69 97 103q109 127 109 240q0 52 -35 93q-36 42 -89 42q-132 0 -168 -110q9 -4 9 -17q0 -20 -18 -20q-12 0 -23 6q-12 8 -12 20l1 4v3q13 70 67 115q52 43 127 43q74 0 127 -47q55 -48 55 -122
q0 -112 -70 -215q-31 -45 -72 -89l-40 -42l-42 -41l-46 -46l-46 -46h313q20 0 20 -20t-20 -20l-384 1v13z" />
    <glyph glyph-name="three" unicode="3" 
d="M83 77q83 -21 131 -21q75 0 124 34q56 39 56 110q0 81 -81 115q-30 13 -75 20q-42 5 -75 5v29q89 19 136 48q69 44 69 117q0 120 -122 120h-6q-103 0 -141 -72q-4 -7 -6 -18l-2 -9l-3 -10q-4 -16 -19 -16q-22 0 -22 23q0 4 1 7l3 12q2 5 4 12q2 6 2 7q44 107 178 107
q173 0 173 -154q0 -101 -68 -145l-14 -9l-13 -8q-16 -9 -30 -14l24 -6q129 -31 129 -157q0 -121 -109 -169h1q-46 -25 -116 -25q-76 0 -141 24q-33 11 -33 49q0 23 21 23q20 0 20 -24l3 -5h1z" />
    <glyph glyph-name="four" unicode="4" 
d="M34 278l1 2l2 3q22 44 71 112l20 26l20 27q13 19 24 34q9 13 14 21l-1 -1q10 15 18 25q7 9 10 13l-1 -1l1 2l1 2l2 3l2 4q5 5 13 19q9 14 21 31l4 6l5 6q5 8 7 11q53 74 76 74q9 0 15 -8q6 -7 6 -17q11 -25 11 -51l-1 -42l-1 -41q-3 -55 -3 -84v-192h134v-5q13 -4 13 -19
q0 -20 -20 -20h-127v-218h-41v219h-251q-17 0 -32 6q-9 -3 -16 1t-12 11v4l-1 3q0 2 8 20l6 11zM329 343l-1 81q0 2 1 24v24q1 15 1 31t1 31v24q1 21 1 23v14l1 15q0 10 -2 28q-35 -39 -87 -122q-7 -12 -21 -30l-12 -15l-11 -15l-66 -93l1 1q-3 -9 -16 -24l-10 -13l-10 -12
q-26 -32 -29 -51q1 -1 6 -1l7 -1h246v81z" />
    <glyph glyph-name="five" unicode="5" 
d="M84 59q3 -4 6 -6v1q47 -12 94 -12q203 0 203 182q0 56 -12 90v-1q-26 62 -106 89q-56 19 -142 19q-56 0 -56 56q2 32 0 84l-1 83q0 54 61 54l257 -1q21 0 21 -20q0 -21 -21 -21l-255 1q-21 0 -21 -17l-1 -173q0 -4 7 -5h9q101 0 178 -31v-5q68 -30 98 -84q26 -50 26 -127
q0 -108 -69 -165q-64 -54 -174 -54q-56 0 -107 15q-26 8 -38 39v2l-1 2q0 25 22 25q12 0 18 -11l2 -5z" />
    <glyph glyph-name="six" unicode="6" 
d="M269 42q99 7 131 104h-1q17 54 17 101q0 90 -43 126q-39 33 -131 33q-46 0 -81 -6q-46 -8 -75 -26q-3 -16 -3 -37v-38q0 -111 31 -172q41 -86 139 -86l9 1h7zM407 697q9 0 12 -1q32 -6 32 -24q0 -22 -25 -22q-10 0 -33 3l-17 2l-17 1q-107 0 -178 -63q-70 -63 -88 -169
q63 23 135 23q119 0 170 -39q59 -44 59 -159q0 -82 -28 -138q-34 -70 -100 -96q-31 -12 -57 -12h-18q-112 0 -168 98q-45 80 -45 200q0 397 332 397h20z" />
    <glyph glyph-name="seven" unicode="7" 
d="M400 693q11 0 13 -1q14 -5 14 -18q0 -5 -8 -24l-7 -14l-3 -6l-3 -5v1q-11 -35 -35 -81l-19 -39l-19 -40q-38 -88 -124 -261v1q-6 -15 -12 -24l1 3l-4 -12l-81 -136v1l-2 -5l-3 -7l-3 -7l-2 -5q-9 -15 -20 -15q-13 0 -22 13v4l-1 3q0 15 45 91q5 10 33 56l8 12l6 10l3 5
l2 3l3 5l-2 -6q2 2 3 5l2 5l2 5l4 10l2 4l1 3q11 26 30 63l16 32l15 31l35 75l34 75l20 43l20 43q10 22 30 64l-14 1h-14l-153 -1l-153 -1q-20 0 -20 21q0 20 20 20h362z" />
    <glyph glyph-name="eight" unicode="8" 
d="M171 347q7 5 16 11l6 5l6 4l-11 6l1 -1l-59 37h1q-71 45 -71 126q0 78 63 124q55 40 138 40q65 0 114 -34q55 -39 55 -102q0 -53 -19 -90v1q-21 -45 -59 -66l-15 -8l-16 -9q-16 -10 -30 -24q79 -39 110 -71q48 -48 48 -117q0 -176 -206 -176q-84 0 -140 41
q-64 46 -64 126q0 99 102 160l15 9zM410 178q0 62 -57 105q-20 16 -55 34l-29 14l-28 13l1 1h-2q-12 -14 -35 -29q-30 -18 -40 -23v1q-81 -52 -81 -127q0 -60 50 -95q43 -31 107 -31q75 0 118 31q51 36 51 106zM319 438q8 4 13 7l5 3l4 3q49 34 49 103q0 50 -39 78
q-34 25 -87 25q-52 0 -90 -19q-46 -22 -63 -64h1q-7 -20 -7 -40q0 -61 49 -92q34 -22 98 -56q19 22 44 38z" />
    <glyph glyph-name="nine" unicode="9" 
d="M130 335q47 -27 117 -27q39 0 82 8q44 10 75 31l1 14v7l1 8v29q0 102 -32 169q-43 84 -137 84q-62 0 -104 -39q-39 -36 -51 -99v1q-5 -35 -5 -53q0 -45 10 -74q14 -41 43 -60v1zM378 122q-82 -118 -254 -118h-20q-18 2 -26 3q-33 5 -33 22q0 22 25 22q8 0 33 -3l18 -3
l19 -1q111 0 180 71q65 68 77 180q-59 -28 -150 -28q-89 0 -139 32l1 -1q-52 34 -69 107v-1q-6 32 -6 64q0 99 52 163q55 70 151 70q43 0 82 -19q75 -34 106 -117q24 -63 24 -161q0 -181 -71 -282z" />
    <glyph glyph-name="colon" unicode=":" horiz-adv-x="189" 
d="M91 382q-55 0 -55 56q0 57 55 57q23 0 40 -17q15 -16 15 -40q0 -23 -16 -39q-17 -17 -39 -17zM91 0q-55 0 -55 56q0 57 55 57q23 0 40 -17q15 -16 15 -40q0 -23 -16 -39q-17 -17 -39 -17z" />
    <glyph glyph-name="semicolon" unicode=";" horiz-adv-x="195" 
d="M152 26q0 -50 -46 -102v1q-5 -8 -15 -8q-23 0 -23 22q0 6 18 31l6 10l7 9l6 10l2 6q-32 -8 -50 7q-19 15 -19 47q0 55 56 55q20 0 35 -16q6 -6 19 -34l-4 6q8 -32 8 -44zM91 383q-55 0 -55 56q0 57 55 57q24 0 40 -16q15 -16 15 -41q0 -24 -16 -40t-39 -16z" />
    <glyph glyph-name="less" unicode="&#x3c;" horiz-adv-x="501" 
d="M28 311q13 7 33 17l18 9l20 9l36 15l36 16q60 29 120 54h-1q7 3 30 13q12 5 20 9l23 10l8 4l6 2l7 4l8 5l8 4l17 9q8 5 19 11l9 4l7 4q12 6 13 6q21 0 21 -21q0 -17 -46 -41l-17 -8l-19 -9l-15 -6l-6 -2l-5 -2h1q-24 -10 -186 -84l-166 -77l7 -4h-1q18 -9 154 -70
l153 -70l51 -22l14 -7l13 -6l13 -6l5 -3l5 -2q19 -10 34 -27l5 -6l5 -5l5 -4l5 -4q0 -13 -4 -20q-4 -9 -17 -9q-16 0 -23 19q-7 18 -23 18l-16 7l1 -1q-14 5 -204 91q-193 89 -194 91l-12 5h1l-11 9v-1q-14 12 -14 27q0 16 14 28v-1q9 9 25 14l-1 -1l12 5h-1z" />
    <glyph glyph-name="equal" unicode="=" horiz-adv-x="533" 
d="M477 406q20 0 20 -20t-20 -20l-442 -1q-21 0 -21 21q0 20 21 20h442zM497 179q0 -21 -20 -21h-442q-21 0 -21 21q0 20 21 20l442 1q20 0 20 -21z" />
    <glyph glyph-name="greater" unicode="&#x3e;" horiz-adv-x="525" 
d="M55 506l2 -1q32 -20 90 -43q50 -19 88 -38l43 -21l43 -20l44 -20l44 -20l19 -9l19 -8q33 -16 37 -18l4 2q15 -7 26 -15q13 -12 13 -26q0 -13 -13 -25l-6 -5l-7 -5l-5 -3l-7 -4h1q-56 -31 -194 -91l-100 -44q-24 -11 -56 -25l-12 -5l-12 -5l-6 -3l-5 -2q-6 -3 -9 -4h1
l-17 -8q-10 -6 -16 -12l-6 -6l-4 -6q-11 -14 -23 -14q-19 0 -19 19q0 10 7 23q8 14 15 18q26 17 73 38l40 16q32 14 37 15q65 29 147 66l72 35l73 35l-8 4h1q-7 3 -22 10l-12 6l-14 7l-27 12l-28 13l-104 47l-29 12l-29 12q-33 12 -56 27l-4 2l-4 2l-18 8l-18 7
q-22 8 -35 15l-6 3l-8 4l-9 6l-8 5q-21 15 -21 27q0 20 21 20q2 0 10 -5l5 -3z" />
    <glyph glyph-name="question" unicode="?" horiz-adv-x="307" 
d="M85 0q-55 0 -55 56q0 57 55 57q24 0 40 -16q15 -16 15 -41q0 -24 -16 -40t-39 -16zM119 685q63 0 113 -38q51 -42 51 -105q0 -81 -96 -155l-18 -14l-17 -13q-7 -6 -17 -13l-7 -6l-7 -5q-30 -25 -30 -46q0 -7 8 -29q5 -9 6 -16l2 -8l2 -11q2 -7 -6 -15q-6 -7 -14 -7
q-22 0 -22 34q-15 26 -15 50q0 32 30 63q9 9 31 27l17 13l18 13q46 33 66 58q30 36 30 77q0 46 -38 76q-34 28 -83 28h-5l-7 -1h-7l-8 -1l-27 -3q-4 0 -9 -3l-5 -6q-8 -8 -15 -8q-21 0 -21 20q0 28 38 39l6 1l8 1l19 2l16 1h13z" />
    <glyph glyph-name="at" unicode="@" horiz-adv-x="787" 
d="M272 350q0 -25 3 -46q5 -27 12 -46q21 -50 70 -50q47 0 80 30v-1q32 32 64 45q-1 1 2 106q2 102 3 108l-7 5q-29 74 -97 74q-47 0 -87 -34q-29 -23 -38 -66l-1 -7l-1 -9q-1 -12 -2 -22l-1 -20v-67zM466 598l9 -7l17 -12q18 -13 30 -30l4 -5l4 -6l7 -13q9 -16 9 -27
q0 -39 -3 -119q-3 -79 -3 -119q0 -12 2 -30q3 -18 12 -28h2l6 3l5 2q67 25 121 106h-1q41 71 41 135q0 83 -52 147q-48 59 -129 90h1q-65 25 -129 25q-139 0 -241 -102q-101 -101 -101 -241q0 -128 107 -223q102 -90 233 -90q66 0 135 23q72 26 115 72l12 14l13 15
q16 16 31 21q7 -1 13 -6q7 -4 7 -12q0 -15 -12 -23l-5 -4l-5 -3q-7 -4 -11 -8l-10 -12l-6 -8l-3 -3l-1 -1q-109 -108 -273 -108q-152 0 -267 100q-121 105 -121 254q0 160 112 272q111 113 271 113q110 0 201 -55q99 -61 134 -157v1q17 -49 17 -93q0 -75 -40 -145
q-42 -74 -101 -113q-43 -28 -80 -28q-22 0 -36 29q-6 11 -9 25q-3 12 -3 23l-17 -13l-17 -12l-9 -7l-8 -5l-9 -6l-3 -2l-3 -2q-37 -21 -78 -21q-67 0 -100 57q-27 45 -27 119v50q1 16 3 50q7 76 50 122q47 50 120 50q14 0 29 -3h-2l4 -2q8 1 28 -7h1z" />
    <glyph glyph-name="A" unicode="A" horiz-adv-x="558" 
d="M173 331l188 2h19q11 2 18 3l-20 54l-20 54l-10 25l-10 25l-11 28l-6 22h1l-9 24l-8 25l-10 23l-10 25l-7 -13q-21 -42 -62 -146l-15 -39l-15 -38l-7 -20l-8 -21l-4 -9l-3 -8l-6 -15h8zM134 387l53 130l53 130q1 5 5 9l2 4l3 4q3 28 32 28h21q15 -23 33 -64l13 -35
l12 -34h-1q55 -158 61 -173v1l65 -174v1q17 -43 32 -88v1q17 -50 39 -127q-32 0 -40 6q-10 7 -16 37q-4 25 -38 115l-13 33l-6 16l-6 16l-20 52v-1l-7 18v-1l-1 6q-25 -5 -48 -5h-139l-30 1h-24q-14 0 -27 1q-7 -22 -40 -101l-22 -50l-22 -50l-4 -10l-4 -11q-3 -9 -9 -25
l-8 -24l-7 -23l-43 1q23 76 72 194l39 96z" />
    <glyph glyph-name="B" unicode="B" horiz-adv-x="448" 
d="M49 672v15h7q4 0 9 1h10l12 1h-1l47 3l13 1h12l12 1h9q96 0 151 -42q62 -48 62 -139q0 -100 -77 -147l-3 -2q58 -19 94 -69q35 -50 35 -112q0 -37 -18 -75q-32 -66 -110 -90q-56 -17 -146 -17q-28 0 -59 4q-40 3 -60 3v649zM91 47q43 -4 80 -4q43 0 105 8h-1
q77 13 112 74v-1q14 34 14 58q0 36 -22 80q-22 45 -89 65q-51 14 -113 14h-86v-294zM118 384l11 1l41 1q47 0 78 -9q11 7 30 16h-1q73 40 73 121q0 139 -172 139h-9q-6 0 -11 -1h-12l-12 -1l-44 -3v-264h28z" />
    <glyph glyph-name="C" unicode="C" horiz-adv-x="543" 
d="M301 692l20 2l19 2h-1l14 1h20q4 0 9 -1h9l11 -1l16 -2l15 -2q17 -2 24 -3q72 -13 72 -35v-5q-6 -15 -24 -15q-6 0 -17 3l-8 2l-8 2l-30 5l-31 5q-45 5 -62 5q-29 0 -76 -10q-54 -11 -75 -22q-160 -85 -160 -266q0 -317 305 -317q34 0 67 3q44 5 66 12l8 3l8 4q9 3 18 3
q16 0 22 -15q0 -30 -81 -44q-30 -5 -62 -7q-20 0 -26 -1h-56q-144 3 -228 103q-80 95 -80 241q0 112 41 189q44 81 141 130q30 15 78 24z" />
    <glyph glyph-name="D" unicode="D" horiz-adv-x="638" 
d="M48 692h10l12 1q16 1 28 1q37 1 72 2l122 1q117 0 204 -75q86 -74 106 -190h2l4 -44q0 -7 1 -16v-12q1 -12 1 -16q0 -147 -92 -242q-92 -94 -240 -98l-42 -1h-31q-30 -1 -32 -1l-62 1h-63v689zM129 654l-13 -1q-24 -2 -26 -1v-610h69q58 0 116 3q138 7 214 85
q76 76 76 217q0 221 -167 287h1q-64 21 -106 21h-151z" />
    <glyph glyph-name="E" unicode="E" horiz-adv-x="418" 
d="M49 15v8q1 8 1 9v664h333q22 0 22 -22q0 -19 -26 -19h-290v-278h224q21 0 21 -20q0 -21 -21 -21h-224v-292h17l17 -1q7 0 13 -1h10q9 -1 10 -1l198 -1h8l9 1q12 2 20 0q24 -1 24 -20q0 -6 -8 -12q-3 -3 -7 -5l-3 -1l-3 -1q-30 2 -41 2l-21 -1h-82l-62 -1l-37 1l-38 1h-65
z" />
    <glyph glyph-name="F" unicode="F" horiz-adv-x="384" 
d="M52 692q13 -1 53 2l27 2l26 1h209q15 0 22 -4q12 -4 12 -17q0 -1 -1 -3l-2 -7l-3 -6l-2 -5q-19 5 -66 3h-18l-18 -1q-6 -1 -18 -1h-54l-42 1q-56 0 -84 -4l-1 -141l-1 -142h250q21 0 21 -21q0 -20 -21 -20h-250l-1 -164l-1 -165h-41z" />
    <glyph glyph-name="G" unicode="G" horiz-adv-x="594" 
d="M526 673q6 -4 14 -16q8 -14 8 -19v-27l-1 -27q0 -21 -21 -21t-21 20v5q0 6 1 9v17q0 23 -6 27q-86 16 -155 16q-140 0 -223 -87q-82 -85 -82 -227q0 -141 84 -222q82 -79 224 -79q62 0 134 18l1 1q9 51 9 123v62h-98q-20 0 -20 19q0 21 20 21h138l-1 -146q0 -46 -9 -87
q-8 -32 -77 -45q-24 -5 -55 -6q-5 -1 -24 -1h-19q-161 0 -253 89q-95 90 -95 250t92 258q95 99 254 99h18q14 0 21 -1l33 -2l13 -1l10 -1q69 -7 87 -19h-1z" />
    <glyph glyph-name="H" unicode="H" horiz-adv-x="609" 
d="M89 19q0 -18 -21 -18q-20 0 -20 20l3 658q0 20 20 20q21 0 21 -21l-2 -308h417l1 154l1 154q0 21 21 21q22 0 22 -21v-235q0 -3 -1 -31v-31l-1 -40q-3 -67 -3 -102v-93l-1 -94v-8l1 -8q2 -11 0 -17q-1 -18 -21 -18q-13 0 -18 11q-3 8 -3 22l1 21l1 20v256h-417z" />
    <glyph glyph-name="I" unicode="I" horiz-adv-x="152" 
d="M51 659v14l1 7l1 5q4 13 20 13q22 0 22 -22l-3 -489l-1 -166q0 -20 -22 -20q-21 0 -21 19l2 320z" />
    <glyph glyph-name="J" unicode="J" horiz-adv-x="186" 
d="M-92 -155l-4 4l-5 4q-4 4 -4 11q0 10 14 24q5 6 11 11l6 4l5 4l17 11l16 11q20 14 31 25q57 57 76 157q8 48 11 90q2 56 2 87l2 392q0 18 19 18q24 0 24 -20l-1 -195l-2 -195q-1 -152 -28 -236q-38 -117 -145 -181q-1 -4 -6 -4l-13 -10q-6 -13 -18 -13l-4 1h-4z" />
    <glyph glyph-name="K" unicode="K" horiz-adv-x="487" 
d="M419 44q-3 6 -7 11l-4 5q-69 69 -133 129l-68 63l-67 63q-22 22 -52 25v-319q0 -20 -20 -20t-20 20v657q0 21 20 21q21 0 21 -21v-293q10 0 23 -4q14 18 93 87l6 6l8 6q9 8 16 14l16 13l17 14l13 11l12 10l6 5l5 5q6 5 8 6l4 4l4 3l5 4l9 9q8 8 12 11l11 11l12 12l26 24
q64 61 79 64q8 -3 12 -7q5 -5 5 -11q0 -20 -72 -86q-24 -22 -54 -48l-21 -18l-4 -3l-4 -3l-4 -3l-2 -2l-24 -21l-22 -20q-29 -27 -47 -41l-22 -17l-22 -18q-28 -23 -40 -38q38 -31 93 -85l46 -43l45 -44l28 -26l29 -25q36 -31 54 -53q8 -8 22 -33q12 -24 12 -36
q0 -18 -19 -18q-14 0 -31 24l-7 10z" />
    <glyph glyph-name="L" unicode="L" horiz-adv-x="416" 
d="M93 0h-45q5 164 7 330v345q0 4 2 12q5 11 24 11q9 0 13 -13l1 -5l1 -6q1 -2 1 -9l-1 -155l-1 -155q0 -56 -1 -116v-90q-1 -86 -1 -104v-6h21l20 -1l115 1h114q17 0 19 29t22 29q10 0 15 -11l1 -5l1 -6q1 -2 1 -9q0 -49 -34 -61q-13 -4 -35 -6h-215z" />
    <glyph glyph-name="M" unicode="M" horiz-adv-x="722" 
d="M665 20q0 -19 -20 -19q-18 0 -21 19q-1 3 -1 7q-2 5 0 10v16l-1 560v8l-1 2q-16 -22 -69 -153q-3 -7 -9 -24l-5 -13l-5 -13l-4 -10l-4 -11l-5 -13l-5 -12q-21 -55 -24 -63l-93 -237l-3 -10l-3 -10q-6 -14 -9 -20v1l-4 -8l-6 -8q-7 -9 -16 -9q-8 0 -16 9l-6 8l-5 8l1 -1
q-5 11 -8 20l-3 9l-4 11l-75 192l-76 192v-1q-3 8 -7 20l-3 8l-3 7q-9 26 -18 48q-26 62 -41 82l1 -1l-2 3l-1 -12l-1 -12l1 -547v-17q2 -4 0 -9l-1 -7q-3 -19 -22 -19q-20 0 -20 20l1 10l1 10v334l-1 209v26q1 13 3 37q8 48 30 48q18 0 51 -58l11 -22l11 -23l4 -9l4 -9
l3 -6l2 -5l-1 1q6 -13 18 -41q3 -7 9 -24l6 -13l5 -14l17 -47l18 -46l30 -73l29 -74l16 -40l16 -41q15 -37 26 -66q74 181 159 403v-1q8 23 18 45l4 9l3 9l6 14l-1 -1q3 18 35 75q35 57 53 57q21 0 28 -48q1 -14 3 -38v-589z" />
    <glyph glyph-name="N" unicode="N" horiz-adv-x="655" 
d="M80 683q13 -7 34 -29l16 -17l14 -17v-2l201 -278l62 -86l62 -86l35 -47q30 -40 35 -48l4 -6l3 -6q4 -6 9 -11l1 -2l1 22v308l-1 286q0 19 21 19t21 -19v-576q0 -2 -1 -11v-9l-1 -12l-1 -17l-2 -16q-1 -22 -17 -22q-34 0 -47 22q-12 20 -47 68l-26 33l-25 33l-58 82
l-59 81l-43 62l-44 61l-29 39l-30 39l-19 26q-6 9 -15 21q-18 25 -22 31q-7 11 -24 28q0 -8 1 -90v-88l1 -118l1 -87v-210q0 -9 -2 -17h1q-3 -16 -21 -16q-21 0 -21 23v642q0 7 8 12t14 5h10zM88 630l1 1h-1v-1z" />
    <glyph glyph-name="O" unicode="O" horiz-adv-x="658" 
d="M516 140q60 86 60 221q0 132 -63 210q-68 86 -196 86q-134 0 -206 -93q-65 -86 -65 -222q0 -108 53 -197q31 -52 95 -79q58 -23 124 -23q131 0 198 97zM544 112q-81 -111 -228 -111q-150 0 -235 97q-82 91 -82 244q0 120 46 205q53 97 156 134q25 8 40 11q27 6 40 6
q144 0 214 -51q59 -42 93 -127q29 -78 29 -156q0 -152 -73 -252z" />
    <glyph glyph-name="P" unicode="P" horiz-adv-x="440" 
d="M218 339q68 0 111 43q44 44 44 111q0 163 -186 163h-92l-1 -158l-1 -159h125zM89 19q0 -18 -21 -18q-20 0 -20 20l1 675l68 1h68q107 0 165 -48q64 -52 64 -156q0 -81 -59 -138q-58 -58 -140 -58h-125z" />
    <glyph glyph-name="Q" unicode="Q" horiz-adv-x="663" 
d="M330 42l9 1l8 1q23 2 28 5l8 2l-2 1l-5 10l-4 7l-5 8l-7 16l-8 16q-18 41 -18 59q0 21 21 21q12 0 20 -20q20 -65 48 -107q81 35 121 124q34 72 34 173q0 131 -63 210q-69 87 -196 87q-134 0 -206 -92q-66 -84 -66 -223q0 -108 53 -197q31 -52 96 -79q58 -23 123 -23h11z
M619 361q0 -105 -38 -192q-43 -96 -132 -140q64 -67 159 -92l-1 -2q5 -2 7 -7q2 -8 2 -11q0 -11 -9 -16q-4 -4 -18 -4l-15 5l-15 5q-89 33 -152 106q-45 -12 -91 -12q-151 0 -236 97q-81 92 -81 244q0 113 42 197q48 97 145 136q50 22 95 22q62 0 113 -8q62 -12 103 -42
q59 -43 93 -129q29 -78 29 -157z" />
    <glyph glyph-name="R" unicode="R" horiz-adv-x="504" 
d="M87 360h45q101 0 159 30q76 40 76 132v10l-1 10v-1q-6 74 -72 99q-29 11 -63 14q-25 3 -67 3h-77v-297zM89 21q0 -20 -21 -20q-20 0 -20 20v678l34 1h83q29 -1 51 -3q59 -5 95 -20q98 -38 98 -153q0 -144 -136 -187q32 -27 71 -94l9 -15l8 -14q10 -17 15 -27l12 -23
l13 -25v1q8 -15 18 -30l13 -17q10 -12 13 -15q35 -38 63 -38h11q9 0 11 -1q10 -10 10 -21q0 -13 -10 -16q-2 -1 -11 -1h-11q-56 0 -115 84q-25 34 -44 71l-9 17l-9 16l-5 9l-4 8l-4 7l-1 2l-1 2q-35 62 -90 110l-1 -1h2q-19 -4 -44 -6l-23 -1h-31l-12 1h-13l-15 1v-300z" />
    <glyph glyph-name="S" unicode="S" horiz-adv-x="476" 
d="M408 183q0 45 -30 82q-29 35 -74 48l-43 12h1q-46 11 -90 27v-1q-59 19 -97 60q-42 47 -42 104q0 87 68 138q62 45 152 45h7l10 -1h9l11 -1q14 -1 47 -8q59 -13 75 -32l-1 2q14 -12 14 -23q0 -6 -6 -11q-8 -5 -12 -5l-2 1h-2l-3 1l-8 4l-9 4l-8 3l-8 4l-4 1l-2 1l-4 2
q-49 17 -104 17q-72 0 -122 -35q-57 -39 -57 -109q0 -74 89 -115q30 -12 80 -26l20 -5l19 -4l10 -3l10 -2l8 -2l7 -2q87 -25 127 -124h-3q8 -27 8 -48q0 -89 -79 -138q-67 -43 -161 -43q-42 0 -90 8q-55 11 -83 33l-4 3l-3 4q-5 5 -5 8q0 18 21 18q8 0 22 -7q66 -26 136 -26
q80 0 136 29q69 38 69 112z" />
    <glyph glyph-name="T" unicode="T" horiz-adv-x="505" 
d="M19 656q-22 0 -22 22q0 21 22 21l551 -1q21 0 21 -21t-21 -21h-251l-2 -159l-3 -158q-3 -196 -3 -318q0 -20 -21 -20q-20 0 -20 20l7 635h-258z" />
    <glyph glyph-name="U" unicode="U" horiz-adv-x="604" 
d="M43 650l1 25q0 22 21 22q23 0 23 -22v-93l-1 -94q-2 -116 0 -187q2 -152 31 -196q41 -62 184 -62q176 0 189 148q10 92 13 236l2 118v129q0 3 2 11q5 12 18 12q21 0 21 -20q0 -301 -14 -488q-8 -93 -75 -142q-61 -46 -157 -46q-184 0 -232 106q-27 59 -27 271v246z" />
    <glyph glyph-name="V" unicode="V" horiz-adv-x="563" 
d="M47 662l5 -13l4 -14q21 -64 70 -191l37 -95l36 -95v1l11 -27q6 -16 9 -27v1q0 -1 1 -4l2 -3l1 -4l4 -11l5 -14l7 -23l8 -24q21 -62 31 -72q14 22 39 88l10 27l9 25l2 7l3 7l2 6l3 7q5 15 6 17q56 140 93 243l-1 -2l7 18l8 17q28 72 49 144v-3l2 7l2 8q1 5 6 16
q9 19 22 19q5 0 13 -5q6 -6 6 -12l-2 -10q-1 -3 -2 -9l-3 -11q-6 -22 -9 -30l1 2q-2 -3 -3 -10l-2 -6l-2 -7l-3 -12l-3 -11l-4 -10l-5 -10l-87 -225v1q-15 -46 -42 -112l-23 -56l-21 -56v1l-1 -2l-1 -3l-1 -5l-2 -5l-4 -11l-3 -10q-10 -28 -15 -34v1q-4 -13 -15 -25
q-13 -15 -24 -15q-12 0 -20 6v-1q-18 15 -38 63q-10 26 -14 38l-6 18q-4 9 -6 15l1 -1l-14 38l-13 38v-1l-14 32q-4 10 -6 17l-3 8l-2 7v-1q-82 212 -130 346h1l-19 59q-2 8 5 12q4 4 13 4q10 0 19 -13q3 -4 6 -12l2 -6z" />
    <glyph glyph-name="W" unicode="W" horiz-adv-x="909" 
d="M60 638q4 -10 6 -20h-1l15 -47l16 -48q15 -48 34 -93h-1l9 -27l4 -11l3 -10l5 -13l4 -12q6 -19 10 -31l12 -35l10 -30l9 -28q56 -172 55 -175l6 -9q4 -6 5 -10q1 1 3 5t4 10l61 155q6 13 17 41l9 21l9 23q5 13 15 37l6 17l7 16v-1l9 23l9 22l-1 -1q11 30 19 48
q13 26 29 42l-27 93l1 -1l-8 19v-1q-5 13 -7 32q-2 24 -2 34q0 18 19 18q17 0 19 -20l2 -27l2 -5l1 -5l2 -7l7 -20l3 -10l4 -11l6 -21l4 -10l3 -8l8 -26q32 -106 57 -177q12 -34 32 -101l14 -51l14 -51v1l27 -94h-1l6 -12q4 6 6 11l5 11l-1 -1q1 2 20 54v-1l3 9h-1l19 51
l18 50q13 35 29 82q1 5 17 50l9 27l10 29l32 94l33 94l-1 -1l11 37l2 8l2 9q2 12 5 19q8 23 23 23q22 0 22 -19q0 -29 -100 -310q-10 -26 -34 -97l-19 -51l-19 -54l-13 -37l-13 -35q-1 -4 -5 -12l-3 -11l-6 -14l1 1q-3 -16 -17 -33q-15 -18 -31 -18q-35 0 -48 43l-28 97
l-29 98q-17 57 -34 112q-12 38 -27 82v-1l-8 22l-7 -14v1l-11 -26l1 1l-6 -16l-6 -16l1 1q-4 -16 -28 -75l-10 -22l-4 -10l-4 -10l-4 -10l-4 -9l-3 -6l-2 -5v1l-4 -10l-4 -10q-4 -13 -9 -24q-12 -31 -24 -60l-22 -51l-20 -52q-10 -30 -44 -30q-15 0 -25 13l1 -1q0 2 -1 3
l-2 2l-2 3l-4 6l-4 6q-10 16 -10 21q0 2 1 1l-184 556l-6 14l-5 10l-5 10q-14 26 -14 28q0 8 6 12q6 6 13 6q15 0 32 -29l5 -12z" />
    <glyph glyph-name="X" unicode="X" horiz-adv-x="519" 
d="M139 221h-1q44 74 96 142q-6 4 -83 123q-39 58 -60 91q-4 7 -9 15l-4 6l-4 6q-9 14 -12 19q-1 4 -9 13l-5 7l-6 9q-14 20 -14 28q0 4 5 12q5 6 12 6q12 0 22 -10l8 -9l7 -10l-1 2q14 -18 40 -59l18 -30l19 -30l61 -91v1l22 -33l21 -33q62 74 132 181v-1l42 65l5 8l5 9
q2 3 6 11l3 4l2 4q15 22 32 22q16 0 16 -14l-1 -5l-1 -6q-3 -3 -10 -19t-10 -20l-47 -70l-47 -69q-58 -84 -101 -135q124 -179 199 -307v1l3 -4l3 -4l6 -10q7 -13 7 -20q0 -9 -7 -13t-15 -4q-6 0 -21 5l-12 22l-3 2q-5 10 -16 28l-10 16l-11 18l-39 62v-1q-14 14 -18 28
l1 -1l-15 21l1 -1l-21 33v-1l-25 37l-26 37l1 -1l-13 20q-42 -58 -81 -120h1q-18 -32 -36 -58l-19 -28l-19 -28l-7 -9l-7 -10l-8 -12l-3 -4l-2 -3q-1 -1 -3 -4l-4 -11l-4 -8l-4 -9q-10 -21 -24 -21q-18 0 -18 19q0 12 10 33l10 19q3 7 6 12l48 69q24 34 46 70z" />
    <glyph glyph-name="Y" unicode="Y" horiz-adv-x="504" 
d="M89 609q5 -5 8 -9l3 -4l2 -3l39 -53l38 -54l24 -32l23 -31q13 -18 27 -39l5 -8l5 -7q6 -7 8 -11q133 171 223 311l3 4l3 5l8 10q11 11 20 11q7 0 12 -8q2 -8 2 -14q0 -3 -5 -15l-5 -8l-4 -6l1 2q-100 -148 -228 -321q-4 -4 -5 -15l-1 -8v-227l-1 -14l-1 -15v-8l1 -8
q0 -13 -1 -16q-5 -17 -22 -17q-20 0 -20 18v70q0 78 1 99q0 125 1 126q0 1 -24 34q-16 21 -30 40l-40 56q-90 128 -93 132l-2 2l-2 1l-2 2l-2 3q-4 5 -6 9v-3l-3 4l-4 5l-7 10q-8 9 -16 24q-19 31 -19 49q0 6 7 12q6 6 12 6q12 0 19 -13q4 -6 6 -11l2 -5l2 -6l-1 1
q5 -14 23 -37l8 -10z" />
    <glyph glyph-name="Z" unicode="Z" horiz-adv-x="522" 
d="M32 67q21 35 56 78l30 38l29 38q75 104 159 214l159 213h-2l-2 -1h-3l-2 1q-5 0 -6 -1h-406q-22 0 -22 22q0 20 21 20h113l113 2l66 1h159q14 0 34 -11v-21l-8 -1q-118 -156 -345 -461l-56 -74l-34 -45l-12 -17l-6 -7l-4 -6q20 -5 53 -5h393q22 0 22 -22q0 -21 -22 -21
h-394q-57 0 -89 15l4 -1l-11 9q0 21 13 43z" />
    <glyph glyph-name="bracketleft" unicode="[" horiz-adv-x="329" 
d="M154 -49q-33 0 -43 10t-10 43v64l-1 63q0 4 1 47v46q1 30 1 61t1 61v46q1 42 1 46l1 100l1 99v16l-1 18q-1 18 2 33q8 36 48 36l27 -1l27 -2q7 0 14 -7q6 -6 6 -14q0 -21 -19 -21l-7 1h-7l-10 1l-8 1h-6l-6 1h-4q-18 0 -18 -15q0 -1 1 -8v-8l1 -11l1 -11v-9l1 -8l-1 -66
l-1 -67q0 -5 -1 -55v-55l-1 -72q-3 -121 -3 -182l1 -69v-70h63q20 0 20 -21t-21 -21h-50z" />
    <glyph glyph-name="backslash" unicode="\" horiz-adv-x="531" 
d="M218 430q0 1 -3 8l-3 6l-4 9q-3 7 -7 17l-4 10l-5 10l-20 47l-20 46q-52 120 -52 129q0 20 21 20q15 0 20 -14l40 -98v1l38 -91v1l46 -113l46 -112q43 -102 97 -224l-1 1l3 -6l-2 3l6 -13l6 -13q3 -9 6 -16l1 -6l1 -5h2l1 -2v-2q0 -3 -5 -11l-5 -4l-5 -4q-21 0 -27 14
l-6 17l-6 17q-7 23 -12 33q-9 25 -38 89l-19 44l-19 44l-43 103l-21 50v-1l-7 17v-1z" />
    <glyph glyph-name="bracketright" unicode="]" horiz-adv-x="328" 
d="M175 740q52 0 52 -50v-209h-4q0 -77 3 -230l1 -116l1 -115q0 -42 -7 -52q-11 -17 -47 -17h-49q-20 0 -20 21q0 20 20 20h60l1 76v75l-1 122l-2 123q-4 129 -4 244q0 1 1 9v7l1 10l1 10v7q1 7 1 8q0 14 -15 14l-21 -1l-21 -2q-26 0 -26 22q0 21 19 21q1 0 9 1h8l11 1l14 1
h14z" />
    <glyph glyph-name="asciicircum" unicode="^" horiz-adv-x="694" 
d="M141 437q0 1 16 36l10 17l9 17l30 58l31 57q8 16 19 37l8 16l8 16q17 32 24 47l4 8l4 9q6 11 12 18q17 20 32 20q18 0 31 -13t22 -27q32 -58 84 -163l41 -83l41 -82q10 -21 24 -29l-2 -6q5 -5 5 -12t-6 -15q-7 -7 -14 -7q-8 0 -19 9l-7 7l-7 8q-4 5 -9 12l-8 14
q-10 18 -15 29l-11 22q-7 13 -11 24l-13 25l-12 26l-8 16l-6 14l-12 24q-68 139 -89 160q-2 -3 -7 -13q-7 -12 -16 -29q-5 -10 -13 -25l-7 -13l-7 -14q-18 -35 -32 -62q-4 -7 -13 -26l-8 -15l-8 -16l-14 -28l-6 -12l-7 -12l-11 -22l-11 -22l-3 -7l-3 -6q-3 -6 -4 -7l-4 -6
q-16 -41 -48 -52q-25 0 -25 20q0 9 11 17l9 7l4 4l4 4h-1l14 27v-1z" />
    <glyph glyph-name="underscore" unicode="_" horiz-adv-x="716" 
d="M616 21q0 -20 -21 -20h-474q-21 0 -21 20q0 21 21 21l474 1q21 0 21 -22z" />
    <glyph glyph-name="grave" unicode="`" horiz-adv-x="368" 
d="M268 668q0 -21 -21 -21q-9 0 -15 6v-1l-124 107q-8 6 -8 17q0 20 20 20q6 0 14 -5l125 -107q9 -7 9 -16z" />
    <glyph glyph-name="a" unicode="a" horiz-adv-x="409" 
d="M317 285l1 23l1 23q0 140 -132 140q-49 0 -99 -14l-9 -3l-9 -3q-10 -3 -18 -3t-16 5q-7 4 -7 14q0 23 71 37q38 7 54 8l14 1h11q11 1 12 1q43 0 63 -7h-1q110 -23 110 -175q0 -1 -1 -14v-16l-1 -20q0 -10 -1 -19v-15q-1 -14 -1 -16t1 -20v-19l1 -26l1 -26v-20
q1 -18 1 -20v-59l-1 -12v-12q-1 -9 -1 -17q-16 -1 -86 -1h-86q-84 0 -122 20q-51 29 -51 104q0 59 15 87q17 33 66 55q60 26 139 26q54 0 81 -7zM58 142l-1 -8q0 -57 32 -75q22 -13 88 -13h34l33 -1q13 0 27 -1h20q18 -1 20 -1l4 1h4v56l-1 58l-1 58v-1q-1 3 -1 15v15
q-40 8 -81 8q-79 0 -123 -22q-31 -15 -42 -30q-10 -15 -12 -51v-8z" />
    <glyph glyph-name="b" unicode="b" horiz-adv-x="470" 
d="M256 473q-72 0 -103 -40l-3 -4l-4 -4l-4 -6l-3 -5l-13 -20q-15 -23 -38 -41l-1 -126l-1 -126v-17q0 -22 52 -32q18 -5 40 -6l16 -1l7 -1h6q90 0 148 54q59 56 59 145q0 105 -27 157q-37 73 -131 73zM91 697q0 -17 -1 -26q0 -8 -1 -17v-13q-1 -12 -1 -14v-217l8 12
q54 90 151 90q110 0 162 -72q48 -64 48 -176q0 -94 -43 -158q-46 -69 -133 -94v1q-31 -11 -74 -11q-63 0 -114 19v-1q-47 17 -47 67q0 3 1 29v29q1 18 1 37t1 37v28q1 26 1 29v414l-1 12q0 20 1 25q3 32 19 32t20 -16q1 -1 1 -6l1 -8v-32z" />
    <glyph glyph-name="c" unicode="c" horiz-adv-x="427" 
d="M269 513q5 -1 21 -1q19 -1 51 -8q64 -13 64 -48q0 -17 -18 -17q-7 0 -17 10l-8 8l-3 4l-3 3q-1 1 -13 3q-14 2 -35 4l-17 1l-17 1l-7 1h-13q-91 0 -144 -59q-52 -55 -52 -149t48 -154q53 -66 143 -66q16 0 41 3l21 2l20 2q13 1 22 5q8 3 15 9q17 11 19 11l15 -1l14 -1
l-12 -12q4 -10 -2 -21q-5 -8 -15 -16q-18 -15 -58 -18l-21 -2l-20 -2q-25 -3 -42 -3q-111 0 -173 74q-57 68 -57 183q0 116 60 183q63 71 177 71h16z" />
    <glyph glyph-name="d" unicode="d" horiz-adv-x="462" 
d="M329 507l15 -3l34 -6q4 15 4 30q2 8 2 71v84l-1 12q-1 16 0 26q3 31 22 31q13 0 17 -18q1 -9 3 -16v-29q0 -18 1 -27v-52q2 -64 -3 -93l-2 -10l-2 -11l-1 -8v-6q-1 -6 -1 -7l1 -1v-2q4 -34 6 -83l-1 -42v-41q0 -115 -4 -178l-1 -19l-2 -19q-2 -24 -3 -38v-13
q0 -10 -1 -12q0 -5 -2 -13q-6 -14 -19 -14q-12 0 -16 13q-1 3 -3 11l-1 5v5q0 21 1 24q-44 -56 -143 -56q-108 0 -163 70q-50 65 -50 175q0 114 61 187q65 80 175 80q21 0 63 -5zM365 132l2 6l6 10l-1 -4q2 4 3 5l2 4q4 53 4 154q0 76 -5 151l-28 7l-29 6q-33 6 -58 6
q-95 0 -152 -67q-53 -65 -53 -160q0 -94 40 -146q45 -59 134 -59q100 0 133 83v-1z" />
    <glyph glyph-name="e" unicode="e" horiz-adv-x="441" 
d="M209 271h114l14 -1q15 -1 25 2q24 6 24 40q0 69 -41 116q-44 47 -113 47q-88 0 -134 -61q-41 -56 -41 -146h18q13 0 25 1h27l16 1h16zM333 230l-27 1h-29l-83 -2l-83 -1h-53q10 -85 61 -133q53 -48 138 -48q50 0 113 20l5 7l-1 -1l5 6l-1 8l7 1h7q22 0 22 -22
q0 -9 -8 -17l1 2q-17 -23 -64 -33q-36 -9 -75 -9q-123 0 -188 69q-64 67 -64 192q0 106 50 174q56 74 160 74q90 0 145 -57q55 -55 55 -147q0 -66 -46 -79q-20 -5 -47 -5z" />
    <glyph glyph-name="f" unicode="f" horiz-adv-x="293" 
d="M81 593q2 85 51 131q50 45 135 45h7q4 0 9 -1h9l11 -1l17 -2l18 -2q20 -2 20 -18q0 -21 -23 -21l-16 1l-17 2q-22 3 -33 3q-143 0 -145 -135l-1 -76h129q21 0 21 -23q0 -18 -21 -18h-129q-5 -92 -3 -229l1 -114l1 -114q0 -20 -22 -20q-20 0 -20 20v387q0 56 1 69h-75
q-20 0 -20 21q0 19 20 19h75v76z" />
    <glyph glyph-name="g" unicode="g" horiz-adv-x="471" 
d="M109 28l-19 11h1q-42 24 -42 61q0 39 47 69h2l12 7q-45 20 -74 68q-27 47 -27 98q0 80 52 129q50 47 131 47q13 0 58 -8q40 -8 57 -14q26 9 64 10h34l16 -1h16l4 6q24 0 24 -20q0 -21 -43 -24q-14 -2 -34 0h-8l-6 1h-9l-24 -2q52 -64 52 -120q0 -85 -52 -136
q-52 -52 -137 -52q-28 0 -43 4q-6 -7 -19 -13l-12 -6l-11 -6q-28 -13 -28 -35q0 -8 7 -15l7 -6l6 -5v1q31 -18 91 -28l27 -4l28 -4l38 -5l6 -1l6 -1q6 -1 7 -1q135 -25 135 -122q0 -74 -80 -115q-64 -33 -146 -33q-83 0 -146 30q-82 37 -82 111q0 36 31 70q27 30 64 45
l-4 -1zM118 215q31 -22 80 -22q53 0 90 25q40 25 52 76v-1q6 21 6 44q0 31 -17 63q-4 7 -7 13q-6 8 -11 15l-19 28l-6 1l-6 1l-7 2l-6 1l-25 6q-37 8 -51 8q-63 0 -104 -38q-40 -39 -40 -103q0 -80 71 -118v-1zM367 -161q39 32 39 64v10l-1 10v-1q-6 40 -62 55
q-82 21 -175 31l-14 2q-9 -12 -30 -24l-20 -9l-19 -10q-49 -25 -49 -67q0 -52 68 -78q19 -8 59 -16q23 -4 53 -4q100 0 152 37h-1z" />
    <glyph glyph-name="h" unicode="h" horiz-adv-x="503" 
d="M97 454q57 72 163 72q109 0 152 -63q38 -56 38 -169l-1 -48l-1 -47q-1 -58 0 -96l1 -16l1 -16v-9l1 -11q1 -4 1 -13v-10q-1 -27 -20 -27q-4 0 -12 5q-7 4 -7 11v30l-1 30q0 12 -1 23v18q-1 16 -1 18l1 52l2 52q2 68 -4 103q-10 77 -33 106q-29 38 -101 38q-51 0 -90 -15
q-46 -19 -66 -59l-4 -10l-5 -11q-5 -12 -11 -19v-22l1 -23q0 -6 -1 -26v-22l-1 -26l-2 -38l-2 -37l-2 -37l-1 -14v-10q-1 -10 -1 -13v-11l1 -8v-7q2 -21 0 -35q-3 -43 -26 -43q-19 0 -19 19q0 53 6 156q6 104 6 156l-1 24l-1 23l1 124v179l-1 56q0 30 22 30q19 0 19 -27
v-287z" />
    <glyph glyph-name="i" unicode="i" horiz-adv-x="176" 
d="M102 468v-31q-1 -19 -1 -126v-290q0 -20 -21 -20q-20 0 -20 20v184l-1 106v165q0 10 1 13q1 9 3 14q5 14 19 14q13 0 19 -13q2 -10 2 -13q1 -2 1 -12v-7h-1zM76 598q-29 0 -47 21q-17 20 -17 50q0 73 66 73q26 0 45 -22q18 -22 18 -48q0 -27 -18 -50q-19 -24 -47 -24z
M50 670q0 -29 25 -29q11 0 18 10q5 8 5 20q0 24 -19 31h1l-2 1q-21 0 -26 -14l1 -3q-3 -7 -3 -16z" />
    <glyph glyph-name="j" unicode="j" horiz-adv-x="197" 
d="M108 602q-73 0 -73 71q0 68 63 68q26 0 46 -20q18 -19 18 -47q0 -24 -14 -47q-16 -25 -40 -25zM82 692q-4 -7 -4 -20q0 -30 20 -30q12 0 18 10q6 8 6 21q0 28 -23 28q-12 0 -17 -9zM77 383l1 57l2 57q0 5 5 13q6 7 12 7q15 0 23 -17v-332q0 -160 -27 -237
q-43 -120 -168 -153q-2 -1 -11 -1q-18 0 -18 18q0 5 4 12l4 5l4 4q112 28 148 139q14 44 18 105q1 17 3 55v268z" />
    <glyph glyph-name="k" unicode="k" horiz-adv-x="421" 
d="M90 615q-1 -16 -1 -73v-40l-1 -42v-155l29 -2q20 26 39 41l53 40l53 41q55 43 102 86l5 5l6 4q8 5 13 5h4l4 -1l5 -4l4 -4q4 -4 4 -12q0 -9 -90 -81l-17 -14l-9 -7l-9 -7l-7 -6l-8 -6l-17 -13q-7 -6 -16 -12l-7 -5l-6 -5l-7 -7l-4 -3l1 1l-17 -15l-18 -15
q-23 -19 -32 -31l57 -53l-1 1l16 -14l16 -15l-1 1l15 -12l11 -9l12 -10l16 -14l15 -13l8 -8l8 -6l12 -12q79 -73 79 -99q0 -15 -21 -15l-6 1l-7 2l-9 16l-10 16q-14 22 -22 30l-1 1l-2 2l-4 3l-4 4l-26 24q-10 9 -23 21l-11 10l-10 9q-21 19 -32 29q-113 98 -120 98h-13
v-265h-42l1 463l1 72l2 72q0 29 1 57v43q1 40 1 44q0 10 5 18q4 10 15 10q23 0 23 -28q0 -3 -1 -22v-21l-1 -26l-2 -34z" />
    <glyph glyph-name="l" unicode="l" horiz-adv-x="122" 
d="M86 21q0 -20 -20 -20t-20 20v716q0 19 18 19h5q11 0 15 -16q2 -10 2 -14l1 -5v-352z" />
    <glyph glyph-name="m" unicode="m" horiz-adv-x="788" 
d="M46 510l4 3q7 4 12 4q11 0 15 -10q2 -8 2 -9l1 -10v-36l-1 -36q26 47 69 75q47 30 97 30q47 0 95 -33t65 -77q27 34 29 37v-1q22 35 63 55q38 18 81 18q77 0 121 -50q43 -46 43 -125v-326q0 -18 -20 -18q-18 0 -18 18v327q0 97 -74 126h1q-18 7 -47 7q-74 0 -112 -53l1 1
q-17 -32 -53 -62q1 -20 -1 -172l-3 -87l-2 -86q0 -18 -19 -18q-22 0 -22 19q0 4 1 52v51q1 34 1 69l1 68v51q1 47 1 52q0 42 -43 79q-42 36 -84 36q-83 0 -135 -88q-14 -25 -33 -38q0 -48 -3 -149l-3 -75l-1 -74v-7l1 -8q0 -14 -1 -17q-1 -21 -18 -21q-20 0 -23 20
q-1 3 -1 18v18q-2 35 3 98l3 49q0 8 1 17v14q1 14 1 18t-1 34v32q-1 22 -1 43q0 22 -1 43v33q-1 31 -1 33q0 1 1 6v5l1 6l2 17z" />
    <glyph glyph-name="n" unicode="n" horiz-adv-x="468" 
d="M31 497q0 19 20 19q19 0 19 -19v-92l11 21l-1 -2q64 91 165 91q2 0 8 -1h6l8 -1q104 -11 134 -93q12 -33 15 -83q1 -9 1 -46v-271q0 -19 -20 -19q-19 0 -19 19v159l1 16v18q2 21 0 45v18l-1 20q-4 106 -28 136q-14 17 -47 29q-33 11 -54 11q-30 0 -70 -17
q-43 -20 -56 -45v1l-6 -12v2q-2 -12 -17 -30q-16 -19 -27 -23v-328q0 -19 -23 -19q-19 0 -19 19v477z" />
    <glyph glyph-name="o" unicode="o" horiz-adv-x="476" 
d="M421 259q0 90 -44 149q-48 65 -135 65q-91 0 -141 -69q-44 -62 -44 -155q0 -81 45 -140q50 -65 128 -65q92 0 143 63q48 59 48 152zM271 5h1q-16 -3 -33 -3q-98 0 -163 75q-60 71 -60 172q0 110 56 184q61 82 168 82q105 0 167 -77q56 -74 56 -180q0 -97 -48 -166
q-52 -76 -144 -87z" />
    <glyph glyph-name="p" unicode="p" horiz-adv-x="468" 
d="M119 58l34 -5h-1l27 -2l16 -1l7 -1h5q142 0 190 129h-1q21 63 21 107q0 40 -21 101v-1q-37 94 -135 94q-79 0 -112 -44l-13 -18l-13 -19q-18 -21 -39 -31v-305zM41 497q0 19 21 19q19 0 19 -19v-77l10 11h-1q48 92 159 92q96 0 153 -69q53 -65 53 -163q0 -68 -22 -121v1
q-27 -76 -85 -116q-58 -42 -139 -42q-6 0 -64 5q-49 4 -61 9v-234q0 -21 -22 -21q-21 0 -21 21v704z" />
    <glyph glyph-name="q" unicode="q" horiz-adv-x="473" 
d="M421 67q0 -35 -3 -107l-2 -54l-1 -53v-10l1 -13q2 -18 0 -29q-1 -37 -22 -37q-20 0 -20 20v18l-1 19q0 13 2 37v-2q5 115 5 168v81l-5 -5l-5 -7q-51 -87 -148 -87q-99 0 -155 72q-51 66 -51 168q0 118 61 191q64 79 180 79q71 0 140 -23q25 -9 25 -33v-304zM75 145
q36 -95 147 -95q53 0 90 40l15 17l15 17q18 18 39 29v301q-73 24 -126 24q-97 0 -150 -68q-49 -61 -49 -161q0 -54 19 -105v1z" />
    <glyph glyph-name="r" unicode="r" horiz-adv-x="311" 
d="M91 398q34 64 66 88q37 31 104 31q13 0 16 -1q7 -2 16 -3q17 -8 17 -24q0 -8 -8 -13q-6 -3 -16 -3l-9 1l-9 2l-7 1h-6l-5 1q-79 0 -125 -97q-14 -29 -47 -61q0 -72 -4 -151t-4 -151q0 -17 -19 -17q-20 0 -20 18l2 77l3 76q3 95 3 153v168q0 20 20 20q21 0 21 -20v-114z
" />
    <glyph glyph-name="s" unicode="s" horiz-adv-x="371" 
d="M273 504q63 -18 63 -44q0 -17 -18 -17q-7 0 -26 8l-13 7l-5 2l-3 1q-4 2 -5 2l-6 2l-6 2v-1q-44 11 -68 11q-52 0 -85 -21q-38 -26 -38 -75q0 -48 47 -72q18 -10 48 -18l27 -7l29 -6q72 -18 103 -40q47 -33 47 -97q0 -69 -60 -107q-52 -33 -125 -33q-2 0 -11 1h-10
q-7 1 -13 1q-17 1 -49 8q-64 13 -64 38q0 18 20 18q9 0 16 -4l7 -4l7 -4q15 -7 47 -11q24 -3 49 -3q58 0 96 20q47 26 47 78q0 70 -77 87l-15 3l-17 4q-21 5 -36 9q-41 10 -73 24q-82 37 -82 107q0 69 49 108q45 36 116 36q15 0 37 -3q40 -7 50 -10z" />
    <glyph glyph-name="t" unicode="t" horiz-adv-x="339" 
d="M85 623q0 20 20 20t20 -21l-3 -108h148q20 0 20 -20t-21 -20h-148l-4 -154q0 -27 -1 -56v-45q-1 -43 -1 -54q0 -119 90 -119q15 0 40 6q17 3 27 9q8 5 14 11q14 14 19 14q23 0 23 -20v-3q-6 -29 -32 -41q-16 -6 -25 -9l-13 -2l-14 -3l1 1q-18 -5 -38 -5q-65 0 -100 44
q-31 40 -31 107q0 13 1 57v46q1 30 1 57l3 159h-75q-20 0 -20 20t20 20h76z" />
    <glyph glyph-name="u" unicode="u" horiz-adv-x="477" 
d="M73 181q0 -67 37 -104q36 -37 103 -37q116 0 147 75q11 26 25 40l-2 66l-1 66v217q0 20 20 20t20 -20l2 -180q0 -33 1 -67v-52q1 -49 1 -60v-117q0 -20 -20 -20t-22 27v10q0 8 1 12l1 11v8q-48 -75 -169 -75h-14l-14 1q-72 4 -116 57q-41 50 -41 124v321q0 20 20 20
q21 0 21 -20v-323z" />
    <glyph glyph-name="v" unicode="v" horiz-adv-x="415" 
d="M86 333q39 -108 66 -177q2 -4 8 -23l5 -17l5 -17q7 -23 12 -34q4 -13 7 -17l1 3v-1q12 36 53 148l28 74l28 73l17 45q5 11 9 24l4 11l4 10l1 3l2 4l2 6l2 7l5 14l5 13q13 34 29 34q21 0 21 -18q0 -16 -10 -39q-4 -7 -9 -21l-5 -10l-3 -8l-58 -155v1l-38 -102
q-1 -2 -8 -22l-3 -11l-4 -12l-10 -29l-4 -13l-3 -15q-1 -7 -5 -16l-2 -6l-3 -7q-17 -32 -45 -32h-2l-2 1l-3 1h-2q-22 16 -34 49q0 1 -2 5q-2 5 -3 8l-2 7l-3 9l-8 29l-1 3l-2 2l-2 4q-1 2 -1 3l1 -1l-10 26v-1q-66 162 -109 289h1l-1 3l-1 3l-3 9l-4 9l-4 10q-5 11 -8 19
q-2 8 -2 10q0 18 20 18q12 0 18 -6l33 -89zM332 433l-1 -2z" />
    <glyph glyph-name="w" unicode="w" horiz-adv-x="661" 
d="M25 502q29 -118 84 -265h-1l4 -12l4 -13q1 -4 5 -14l5 -11l-1 1l46 -135q17 27 27 67v-1q3 10 7 23q5 16 13 35l11 28l11 29l23 69v-1l9 28l1 1h1l1 2v4l1 2l34 73q0 2 -1 8v6l-1 7l-4 21q-6 29 -6 42q0 20 20 20q16 0 20 -22q2 -7 3 -18l1 -9l1 -8v1l5 -41l6 -41
q8 -48 18 -81h-1l5 -18v1l6 -18v3l23 -72l2 -6l2 -7l3 -10l2 -9l5 -21l6 -21q14 -54 22 -69v-1l3 7l3 7l2 4l2 4q2 5 3 6l-1 -1q2 7 6 17l4 9l3 8l18 50l18 50l-1 -1l34 96l34 96l1 3l2 6l2 8l2 9l5 19l5 20q15 50 30 50q24 0 24 -18q0 -31 -54 -180q-7 -22 -21 -57l-10 -27
l-9 -26q-10 -27 -17 -47l-9 -27h1l-4 -10l-4 -11v1l-4 -12l-6 -12l-4 -13l-3 -12l-3 -4l-3 -6l-7 -14l-6 -13l-7 -13l1 1q-12 -12 -25 -12q-16 0 -31 20l-5 8l-5 10q-4 5 -7 16l1 -1l-15 53v-1l-6 23l-7 23q-7 26 -15 44l1 -1l-6 18v-1l-9 24l-6 18l-5 17q-15 47 -15 57v-1
l-1 6l-6 -14l-6 -15v1l-6 -19l1 1l-2 -8l-4 -8v1l-23 -65l-24 -65v1q-2 -2 -6 -17l-4 -12l-1 -4q0 -2 -1 -3h1l-2 -6l-2 -6l-1 -3l-1 -3q-1 -5 -3 -9q-7 -21 -15 -36q-21 -46 -42 -46q-15 0 -30 24q-7 7 -12 20l-4 9l-3 8q0 1 -10 28q-4 15 -9 27l-6 17l-6 17l-6 18l-6 17
l-3 10l-3 8q-3 9 -5 13l-24 72q-64 185 -64 209q0 18 20 18q18 0 22 -15v1z" />
    <glyph glyph-name="x" unicode="x" horiz-adv-x="410" 
d="M60 499q17 -36 66 -100q46 -62 76 -96q21 31 48 64l25 31l25 31l-1 -1l16 22l-1 -1q4 4 14 18l-1 -1q10 10 17 21l15 21v-2q3 11 15 11t19 -13l-1 -14l-41 -55l-40 -56q-37 -51 -82 -110q27 -33 87 -118l20 -29l20 -30l11 -17l11 -16q11 -18 18 -30l-1 2q4 -4 4 -16v2
q0 -16 -20 -16q-12 0 -15 11v-2q-59 98 -157 227l-1 -1l-1 -1l-4 -5l-5 -6l-5 -6l-10 -11l-10 -12q-24 -28 -31 -44v1q-20 -26 -24 -32q-17 -22 -28 -38l-25 -37l-25 -36q-5 -8 -18 -8q-18 0 -18 18q0 9 4 12l-1 -2q23 41 73 110l41 51l41 52l10 14l10 14q-87 92 -159 225
q0 6 5 14t12 8q16 0 22 -19v1z" />
    <glyph glyph-name="y" unicode="y" horiz-adv-x="408" 
d="M-44 -194q8 -5 6 -13q106 0 155 72v-1q16 23 37 77l15 40l16 40q-23 28 -36 61l-86 231l-23 65l-24 65l-6 14l-8 13q-8 19 -8 29q0 4 8 12q8 6 13 6q12 0 20 -14q0 -1 2 -5l1 -3l2 -5l2 -6l2 -6l33 -90l33 -91q39 -109 69 -180l10 -24q2 -5 6 -13l3 -6l2 -5q20 39 39 93
l17 47l17 48h-1q2 7 6 18l4 11l4 12q3 9 9 24l4 13l5 14l32 92l-1 -1l1 4l1 4l3 11q2 9 6 25q11 32 26 32q10 0 16 -8q5 -8 5 -17q0 -8 -24 -79l-9 -26l-4 -11l-4 -11q-9 -25 -9 -26h1q-15 -54 -62 -171l-33 -84q-13 -30 -31 -85l1 1q-44 -128 -79 -173q-58 -75 -168 -75
q-16 0 -33 9q-20 11 -20 25q0 24 22 24q5 0 7 -1l4 -1z" />
    <glyph glyph-name="z" unicode="z" horiz-adv-x="401" 
d="M105 182l58 69q58 67 112 140l4 5l4 5q4 4 10 12l19 21l-1 -1l14 18l4 5l4 5l3 5l2 4q-36 3 -108 3h-130l-82 -1q-20 0 -20 21q0 20 20 20q208 0 245 1h6q4 0 9 -1h10l12 -1l18 -1l19 -1q45 0 45 -41q0 -17 -19 -42l-8 -10l-9 -10l-8 -9l-7 -8l1 1q-151 -184 -276 -336v1
l-7 -8l-7 -9q8 2 84 0l30 -1l15 -1h14q9 -1 25 -1h162q18 0 18 -19q0 -16 -16 -16h-217l-58 1h-12l-14 1l-19 2l-8 1l-6 1q-39 9 -39 36q0 13 21 38l26 32z" />
    <glyph glyph-name="braceleft" unicode="{" horiz-adv-x="377" 
d="M159 546v101q0 53 22 74q23 21 75 21q20 0 20 -22q0 -17 -12 -19q-2 -1 -12 -1l-14 1q-39 0 -39 -55v-183l-2 -25l-1 -10l-1 -7q-7 -46 -37 -73q35 -33 39 -117l2 -38l1 -11v-81l-1 -53q0 -35 10 -45t45 -10l2 1q21 0 21 -21t-21 -21q-97 0 -97 90v32l1 16q0 63 -1 78
q-1 108 -12 129q-1 3 -11 13l-8 7l-8 6q-20 17 -20 26q0 8 23 25q12 8 18 18q9 12 11 34q7 62 7 120z" />
    <glyph glyph-name="bar" unicode="|" horiz-adv-x="242" 
d="M100 779q0 20 21 20t21 -20v-855q0 -20 -22 -20q-20 0 -20 20v855z" />
    <glyph glyph-name="braceright" unicode="}" horiz-adv-x="377" 
d="M217 597v-64q0 -85 9 -118q4 -14 13 -25q6 -8 17 -17q21 -16 21 -23q0 -10 -9 -18l-4 -3l-4 -3l-3 -2l-3 -2l-2 -2l-2 -2q-28 -22 -28 -90l-1 -90l-1 -91q0 -96 -97 -96q-20 0 -20 21q0 16 12 19q2 1 12 1h14q38 0 38 54v21l-1 9v19l-1 19q-2 23 0 47v19q0 11 1 21
q5 110 43 144q-26 23 -34 60v-1q-11 42 -11 122q-2 26 0 65v15l1 13v24q0 33 -12 46q-9 9 -27 9l-14 -1q-10 0 -12 1q-12 2 -12 19q0 21 20 21q53 0 76 -20q22 -21 22 -75v-32z" />
    <glyph glyph-name="asciitilde" unicode="~" horiz-adv-x="666" 
d="M331 317l36 -16h-1l17 -6l18 -6q17 -7 36 -7q50 0 68 31v-1l6 11l9 7l-2 -1q10 7 23 7q25 0 25 -20q0 -11 -12 -17l-5 -2l-4 -1q-4 -1 -4 -3q-34 -54 -104 -54q-41 0 -109 34t-109 34q-17 0 -36 -8q-12 -6 -27 -19q-30 -27 -34 -27q-22 0 -22 20q0 5 5 13q47 63 113 63
q36 0 77 -16l9 -4l8 -3l10 -4z" />
    </font>
</defs>
</svg>
